<?xml version="1.0" encoding="UTF-8"?><svg id="Layer_1" xmlns="http://www.w3.org/2000/svg" viewBox="0 0 27.22 27.22"><circle cx="13.61" cy="13.61" r="13.61" style="fill:#f15a24;"/><g id="Layer_9"><path d="M11.08,18.32v5.93l2.53,1.98,2.53-1.98v-5.93l-2.53,1.98-2.53-1.98h0Z" style="fill:#fff; fill-rule:evenodd;"/><path id="SVGID" d="M16.74,13.38c.18.1.18.36,0,.46l-2.48,1.43-2.46,1.46c-.18.11-.4-.02-.4-.23.02-1.44.02-4.35,0-5.79,0-.21.22-.33.4-.23,1.22.73,3.7,2.18,4.94,2.89h0Z" style="fill:#fff; fill-rule:evenodd;"/><path d="M16.42,18.15l5.14,2.97,2.98-1.21-.45-3.18-5.14-2.97.45,3.18-2.98,1.21h0Z" style="fill:#fff; fill-rule:evenodd;"/><path d="M18.95,13.45l5.14-2.97.45-3.18-2.98-1.21-5.14,2.97,2.98,1.21-.45,3.18h0Z" style="fill:#fff; fill-rule:evenodd;"/><path d="M16.14,8.9V2.97l-2.53-1.98-2.53,1.98v5.93l2.53-1.98,2.53,1.98h0Z" style="fill:#fff; fill-rule:evenodd;"/><path d="M10.8,9.06l-5.14-2.97-2.98,1.21.45,3.18,5.14,2.97-.45-3.18s2.98-1.21,2.98-1.21Z" style="fill:#fff; fill-rule:evenodd;"/><path d="M8.27,13.77l-5.14,2.97-.45,3.18,2.98,1.21,5.14-2.97-2.98-1.21.45-3.18h0Z" style="fill:#fff; fill-rule:evenodd;"/></g></svg>